# xmcd
#
# Track frame offsets: 
#        150
#        12182
#        24022
#        29488
#        40836
#        50983
#        65939
#        72748
#        81870
#        91168
#        101147
#        114734
#        127948
#        144708
#        154698
#        169258
#        180875
#        194509
#        206016
#        215591
#        227269
#        239331
#        250842
#        259720
#        271124
#
# Disc length: 3757 seconds
#
# Revision: 0
# Processed by: cddbd v1.5.1PL2 Copyright (c) Steve Scherf et al.
# Submitted via: ExactAudioCopy v0.95b3
#
DISCID=650eab19
DTITLE=Willie Nelson - Songbook
DYEAR=2005
DGENRE=Country
TTITLE0=End Of Understanding
TTITLE1=Happiness Lives Next Door
TTITLE2=The Ghost
TTITLE3=I'm Going To Lose Alot Of Teardrops
TTITLE4=Healing Hands Of Time
TTITLE5=And So Will You My Love
TTITLE6=Both Ends Of The Candle
TTITLE7=Right From Wrong
TTITLE8=One Step Beyond
TTITLE9=I Didn't Sleep A Wink
TTITLE10=A Moment Isn't Very Long
TTITLE11=I Just Don't Understand
TTITLE12=I Let My Mind Wander
TTITLE13=A New Way To Cry
TTITLE14=What Can You Do To Me Now
TTITLE15=What A Way To Live
TTITLE16=If You Can't Undo The Wrongs, Undo The Rights
TTITLE17=December Days
TTITLE18=Half A Man
TTITLE19=I'll Stay Around
TTITLE20=Following Me Around
TTITLE21=Some Other Time
TTITLE22=Why Are You Picking On Me
TTITLE23=Suffing In Silence
TTITLE24=I Fell Sorry For Him
EXTD=
EXTT0=
EXTT1=
EXTT2=
EXTT3=
EXTT4=
EXTT5=
EXTT6=
EXTT7=
EXTT8=
EXTT9=
EXTT10=
EXTT11=
EXTT12=
EXTT13=
EXTT14=
EXTT15=
EXTT16=
EXTT17=
EXTT18=
EXTT19=
EXTT20=
EXTT21=
EXTT22=
EXTT23=
EXTT24=
PLAYORDER=
